<?xml version="1.0" encoding="UTF-8" standalone="no"?>
<!-- Created with Inkscape (http://www.inkscape.org/) -->

<svg
   width="997.61292"
   height="1017.8633"
   viewBox="0 0 263.95175 269.30966"
   version="1.1"
   id="svg1"
   xmlns="http://www.w3.org/2000/svg"
   xmlns:svg="http://www.w3.org/2000/svg">
  <defs
     id="defs1" />
  <g
     id="layer1"
     transform="translate(-1.4511017,2.4557121)">
    <path
       style="opacity:1;fill:#1a1a1a;fill-opacity:1;stroke:#800000;stroke-width:0;stroke-linejoin:miter;stroke-miterlimit:4.3;stroke-dasharray:none;stroke-opacity:1"
       id="rect24"
       width="263.95175"
       height="269.30966"
       x="1.4511018"
       y="-2.4557121"
       d="M 37.004488,-2.4557121 H 229.84947 c 19.69657,0 35.55338,15.8568101 35.55338,35.5533871 V 231.30056 c 0,19.69658 -15.85681,35.55339 -35.55338,35.55339 H 37.004488 c -19.696576,0 -35.5533862,-15.85681 -35.5533862,-35.55339 V 33.097675 c 0,-19.696577 15.8568102,-35.5533871 35.5533862,-35.5533871 z"
       ry="35.553387" />
    <path
       d="m 173.89906,183.83468 9.80747,18.98674 c 6.11731,-3.70626 11.1423,-8.09289 15.03705,-13.18358 4.77141,-6.11869 7.44275,-13.02453 8.0145,-20.7171 0.60809,-7.62222 -1.14073,-15.40804 -5.24714,-23.35784 -5.1966,-10.06035 -12.66542,-16.49636 -22.4061,-19.30773 -9.77468,-2.7047 -22.6983,-3.82745 -38.77067,-3.36824 -16.07237,0.45922 -28.11712,0.17471 -36.13441,-0.85317 -8.017298,-1.02787 -13.770297,-4.91834 -17.25893,-11.67215 -3.452291,-6.68345 -4.009298,-12.679181 -1.670869,-17.986755 1.717932,-3.899213 5.194397,-7.589953 10.39648,-11.076243 L 85.709513,62.022528 c -7.390357,4.233224 -13.117133,9.250448 -17.161663,15.060315 -4.587376,6.647491 -6.953755,13.885623 -7.098736,21.714253 -0.144979,7.828614 1.854274,15.753214 5.997026,23.773364 5.378309,10.41212 13.115654,17.10987 23.212738,20.09363 10.063062,3.09047 23.573692,4.40035 40.531282,3.9295 16.99393,-0.4005 28.87752,-0.25594 35.65084,0.43414 6.77334,0.69008 11.72286,4.06035 14.84809,10.11064 2.97987,5.76888 3.65093,11.0371 2.01369,15.80424 -1.57144,4.42045 -4.84584,8.0596 -9.80372,10.89207 z"
       style="font-size:281.776px;line-height:59.8039px;font-family:Bauhaus-Medium;-inkscape-font-specification:'Bauhaus-Medium, Normal';letter-spacing:-0.0739179px;word-spacing:-0.0304367px;fill:#f6ffd5;stroke:#800000;stroke-width:0;stroke-miterlimit:4.3;stroke-dasharray:none"
       id="path22" />
    <rect
       style="opacity:1;fill:#aad400;fill-opacity:1;stroke:#800000;stroke-width:0;stroke-linejoin:miter;stroke-miterlimit:4.3;stroke-dasharray:none;stroke-opacity:1"
       id="rect18"
       width="14.108474"
       height="25.06967"
       x="-115.16786"
       y="-117.61742"
       transform="rotate(152.6817)" />
    <rect
       style="opacity:1;fill:#ccff00;fill-opacity:1;stroke:#800000;stroke-width:0;stroke-linejoin:miter;stroke-miterlimit:4.3;stroke-dasharray:none;stroke-opacity:1"
       id="rect15"
       width="14.108474"
       height="25.06967"
       x="-60.961643"
       y="-266.54483"
       transform="rotate(152.6817)" />
    <rect
       style="opacity:1;fill:#aad400;fill-opacity:1;stroke:#800000;stroke-width:0;stroke-linejoin:miter;stroke-miterlimit:4.3;stroke-dasharray:none;stroke-opacity:1"
       id="rect19"
       width="14.108474"
       height="25.06967"
       x="-92.594307"
       y="-117.61742"
       transform="rotate(152.6817)" />
    <rect
       style="opacity:1;fill:#aad400;fill-opacity:1;stroke:#800000;stroke-width:0;stroke-linejoin:miter;stroke-miterlimit:4.3;stroke-dasharray:none;stroke-opacity:1"
       id="rect16"
       width="14.108474"
       height="25.06967"
       x="-38.388092"
       y="-266.54483"
       transform="rotate(152.6817)" />
    <rect
       style="opacity:1;fill:#ccff00;fill-opacity:1;stroke:#800000;stroke-width:0;stroke-linejoin:miter;stroke-miterlimit:4.3;stroke-dasharray:none;stroke-opacity:1"
       id="rect20"
       width="14.108474"
       height="25.06967"
       x="-70.99749"
       y="-117.61742"
       transform="rotate(152.6817)" />
    <rect
       style="opacity:1;fill:#88aa00;fill-opacity:1;stroke:#800000;stroke-width:0;stroke-linejoin:miter;stroke-miterlimit:4.3;stroke-dasharray:none;stroke-opacity:1"
       id="rect17"
       width="14.108474"
       height="25.06967"
       x="-16.791275"
       y="-266.54483"
       transform="rotate(152.6817)" />
  </g>
</svg>
